<svg xmlns="http://www.w3.org/2000/svg" xmlns:xlink="http://www.w3.org/1999/xlink" width="500" zoomAndPan="magnify" viewBox="0 0 375 374.999991" height="500" preserveAspectRatio="xMidYMid meet" version="1.0"><defs><clipPath id="51cd36ac92"><path d="M 0 2.109375 L 375 2.109375 L 375 375 L 0 375 Z M 0 2.109375 " clip-rule="nonzero"/></clipPath><clipPath id="43d05f98ad"><path d="M 17.09375 119.871094 L 357.59375 119.871094 L 357.59375 314.871094 L 17.09375 314.871094 Z M 17.09375 119.871094 " clip-rule="nonzero"/></clipPath></defs><g clip-path="url(#51cd36ac92)"><path fill="#397fbf" d="M 187.5 377.109375 C 83.910156 377.109375 0 292.617188 0 189.609375 C 0 86.597656 83.910156 2.109375 187.5 2.109375 C 291.089844 2.109375 375 86.019531 375 189.609375 C 375 293.195312 290.507812 377.109375 187.5 377.109375 Z M 187.5 13.683594 C 90.277344 13.683594 11.574219 92.386719 11.574219 189.609375 C 11.574219 286.832031 90.277344 365.535156 187.5 365.535156 C 284.722656 365.535156 363.425781 286.832031 363.425781 189.609375 C 363.425781 92.386719 284.144531 13.683594 187.5 13.683594 Z M 187.5 13.683594 " fill-opacity="1" fill-rule="nonzero"/></g><g clip-path="url(#43d05f98ad)"><path fill="#397fbf" d="M 18.292969 128.988281 L 127.550781 311.941406 C 128.636719 313.761719 130.597656 314.875 132.714844 314.875 C 134.832031 314.875 136.796875 313.761719 137.882812 311.941406 L 187.34375 229.113281 L 236.804688 311.941406 C 237.890625 313.761719 239.851562 314.875 241.972656 314.875 C 244.085938 314.875 246.046875 313.761719 247.136719 311.941406 L 356.390625 128.988281 C 357.503906 127.125 357.527344 124.808594 356.457031 122.921875 C 355.390625 121.035156 353.390625 119.871094 351.226562 119.871094 L 295.976562 119.871094 C 293.835938 119.871094 291.863281 121.003906 290.78125 122.847656 L 247.464844 196.777344 C 245.785156 199.648438 246.746094 203.335938 249.613281 205.023438 C 252.480469 206.707031 256.167969 205.746094 257.847656 202.875 L 299.421875 131.921875 L 340.613281 131.921875 L 241.972656 297.105469 L 194.355469 217.371094 L 247.136719 128.988281 C 248.25 127.125 248.273438 124.808594 247.203125 122.921875 C 246.136719 121.035156 244.136719 119.871094 241.972656 119.871094 L 186.71875 119.871094 C 184.582031 119.871094 182.605469 121.003906 181.527344 122.847656 L 138.210938 196.777344 C 136.53125 199.648438 137.492188 203.335938 140.355469 205.023438 C 143.226562 206.707031 146.914062 205.746094 148.59375 202.875 L 190.167969 131.921875 L 231.359375 131.921875 L 182.191406 214.25 C 182.179688 214.277344 182.160156 214.304688 182.144531 214.332031 L 132.714844 297.105469 L 34.074219 131.921875 L 122.589844 131.921875 L 110.484375 154.203125 C 108.898438 157.125 109.976562 160.785156 112.898438 162.375 C 115.816406 163.964844 119.472656 162.882812 121.0625 159.960938 L 138.003906 128.777344 C 139.015625 126.910156 138.976562 124.644531 137.890625 122.816406 C 136.804688 120.992188 134.839844 119.871094 132.714844 119.871094 L 23.460938 119.871094 C 21.292969 119.871094 19.292969 121.035156 18.226562 122.921875 C 17.15625 124.808594 17.183594 127.125 18.292969 128.988281 " fill-opacity="1" fill-rule="nonzero"/></g></svg>