<svg xmlns="http://www.w3.org/2000/svg" xmlns:xlink="http://www.w3.org/1999/xlink" width="25" zoomAndPan="magnify" viewBox="0 0 375 374.999991" height="25" preserveAspectRatio="xMidYMid meet" version="1.0"><path fill="#00427f" d="M 226.925781 205.800781 L 229.96875 201.503906 L 246.246094 197.988281 C 256.300781 195.820312 265.261719 190.121094 271.5 181.929688 C 357.921875 68.441406 348.925781 24.445312 340.714844 10.53125 C 338.882812 7.417969 334.464844 7.191406 332.257812 10.050781 L 202.996094 177.6875 Z M 226.925781 205.800781 " fill-opacity="1" fill-rule="nonzero"/><path fill="#00427f" d="M 169.761719 217.570312 L 78.652344 335.730469 C 74.71875 340.839844 73.402344 347.503906 75.117188 353.722656 L 75.863281 356.441406 C 77.925781 363.953125 84.058594 369.652344 91.699219 371.148438 C 99.601562 372.6875 107.671875 369.460938 112.335938 362.882812 L 193.5 248.453125 Z M 169.761719 217.570312 " fill-opacity="1" fill-rule="nonzero"/><path fill="#00427f" d="M 139.621094 166.96875 L 127.210938 170.132812 C 115.738281 173.054688 103.5625 170.898438 93.796875 164.210938 C 88.972656 160.910156 84.910156 156.617188 81.882812 151.617188 L 18.332031 46.785156 C 16.929688 44.480469 17.566406 41.476562 19.792969 39.941406 C 21.964844 38.433594 24.921875 38.824219 26.628906 40.835938 L 91.953125 118.132812 C 94.257812 120.859375 98.386719 121.089844 100.984375 118.628906 C 103.207031 116.515625 103.558594 113.101562 101.8125 110.589844 L 44.539062 28.144531 C 43.207031 26.222656 43.535156 23.605469 45.304688 22.074219 C 47.183594 20.449219 50.011719 20.613281 51.6875 22.445312 L 117.8125 94.753906 C 120 97.148438 123.664062 97.464844 126.234375 95.484375 C 128.96875 93.371094 129.46875 89.441406 127.34375 86.71875 L 69.652344 12.671875 C 67.628906 10.074219 68.152344 6.324219 70.8125 4.386719 C 73.121094 2.699219 76.316406 2.929688 78.355469 4.9375 L 165.964844 91.105469 C 170.640625 95.703125 173.984375 101.472656 175.652344 107.816406 C 178.421875 118.351562 176.316406 129.570312 169.925781 138.398438 L 165.328125 144.746094 L 328.140625 335.523438 C 332.535156 340.667969 334.246094 347.585938 332.765625 354.179688 C 330.800781 362.929688 323.605469 369.542969 314.71875 370.777344 L 310.789062 371.324219 C 303.125 372.390625 295.484375 369.265625 290.761719 363.136719 Z M 139.621094 166.96875 " fill-opacity="1" fill-rule="nonzero"/></svg>