<svg xmlns="http://www.w3.org/2000/svg" xmlns:xlink="http://www.w3.org/1999/xlink" width="500" zoomAndPan="magnify" viewBox="0 0 375 374.999991" height="500" preserveAspectRatio="xMidYMid meet" version="1.0"><defs><clipPath id="16df4e76cd"><path d="M 0 256 L 366 256 L 366 311.671875 L 0 311.671875 Z M 0 256 " clip-rule="nonzero"/></clipPath></defs><path fill="#397fbf" d="M 338.039062 102.359375 L 27.976562 102.359375 C 12.714844 102.359375 0.339844 89.980469 0.339844 74.707031 C 0.117188 56.679688 17.179688 46.246094 28.070312 47.050781 C 34.789062 47.066406 337.835938 47.03125 338.496094 47.054688 C 374.722656 49.003906 374.515625 100.910156 338.039062 102.359375 Z M 338.039062 102.359375 " fill-opacity="1" fill-rule="nonzero"/><path fill="#397fbf" d="M 338.039062 207.054688 L 27.976562 207.054688 C 12.714844 207.054688 0.339844 194.671875 0.339844 179.398438 C 0.117188 161.375 17.179688 150.941406 28.070312 151.746094 C 34.789062 151.761719 337.835938 151.726562 338.496094 151.746094 C 374.722656 153.699219 374.515625 205.601562 338.039062 207.054688 Z M 338.039062 207.054688 " fill-opacity="1" fill-rule="nonzero"/><g clip-path="url(#16df4e76cd)"><path fill="#397fbf" d="M 338.039062 311.75 L 27.976562 311.75 C 12.714844 311.75 0.339844 299.367188 0.339844 284.09375 C 0.117188 266.066406 17.179688 255.632812 28.070312 256.4375 C 34.789062 256.457031 337.835938 256.421875 338.496094 256.441406 C 374.722656 258.394531 374.515625 310.296875 338.039062 311.75 Z M 338.039062 311.75 " fill-opacity="1" fill-rule="nonzero"/></g></svg>