<svg xmlns="http://www.w3.org/2000/svg" xmlns:xlink="http://www.w3.org/1999/xlink" width="500" zoomAndPan="magnify" viewBox="0 0 375 374.999991" height="500" preserveAspectRatio="xMidYMid meet" version="1.0"><defs><clipPath id="8ed6ebb7ec"><path d="M 63.75 0 L 311.25 0 L 311.25 375 L 63.75 375 Z M 63.75 0 " clip-rule="nonzero"/></clipPath></defs><path fill="#397fbf" d="M 187.5 58.019531 L 224.082031 75.105469 L 260.667969 92.1875 L 224.082031 109.273438 L 187.5 126.359375 L 150.917969 109.273438 L 114.332031 92.1875 L 150.917969 75.105469 Z M 187.5 58.019531 " fill-opacity="1" fill-rule="evenodd"/><path fill="#397fbf" d="M 248.738281 94.230469 L 248.765625 151.59375 L 238.757812 151.59375 L 238.734375 94.230469 Z M 248.738281 94.230469 " fill-opacity="1" fill-rule="nonzero"/><path fill="#397fbf" d="M 254.886719 161.054688 C 254.886719 161.785156 254.816406 162.511719 254.675781 163.226562 C 254.53125 163.945312 254.320312 164.640625 254.039062 165.316406 C 253.761719 165.992188 253.417969 166.632812 253.011719 167.242188 C 252.605469 167.851562 252.144531 168.414062 251.625 168.929688 C 251.109375 169.449219 250.546875 169.910156 249.9375 170.316406 C 249.332031 170.722656 248.6875 171.066406 248.011719 171.34375 C 247.335938 171.625 246.640625 171.835938 245.921875 171.980469 C 245.207031 172.121094 244.480469 172.191406 243.75 172.191406 C 243.019531 172.191406 242.292969 172.121094 241.578125 171.980469 C 240.859375 171.835938 240.164062 171.625 239.488281 171.34375 C 238.8125 171.066406 238.167969 170.722656 237.5625 170.316406 C 236.953125 169.910156 236.390625 169.449219 235.875 168.929688 C 235.355469 168.414062 234.894531 167.851562 234.488281 167.242188 C 234.082031 166.632812 233.738281 165.992188 233.460938 165.316406 C 233.179688 164.640625 232.96875 163.945312 232.824219 163.226562 C 232.683594 162.511719 232.613281 161.785156 232.613281 161.054688 C 232.613281 160.324219 232.683594 159.597656 232.824219 158.882812 C 232.96875 158.164062 233.179688 157.46875 233.460938 156.792969 C 233.738281 156.117188 234.082031 155.472656 234.488281 154.867188 C 234.894531 154.257812 235.355469 153.695312 235.875 153.179688 C 236.390625 152.660156 236.953125 152.199219 237.5625 151.792969 C 238.167969 151.386719 238.8125 151.042969 239.488281 150.765625 C 240.164062 150.484375 240.859375 150.273438 241.578125 150.128906 C 242.292969 149.988281 243.019531 149.914062 243.75 149.914062 C 244.480469 149.914062 245.207031 149.988281 245.921875 150.128906 C 246.640625 150.273438 247.335938 150.484375 248.011719 150.761719 C 248.6875 151.042969 249.332031 151.386719 249.9375 151.792969 C 250.546875 152.199219 251.109375 152.660156 251.625 153.179688 C 252.144531 153.695312 252.605469 154.257812 253.011719 154.867188 C 253.417969 155.472656 253.761719 156.117188 254.039062 156.792969 C 254.320312 157.46875 254.53125 158.164062 254.675781 158.882812 C 254.816406 159.597656 254.886719 160.324219 254.886719 161.054688 Z M 254.886719 161.054688 " fill-opacity="1" fill-rule="nonzero"/><g clip-path="url(#8ed6ebb7ec)"><path fill="#397fbf" d="M 187.5 0 C 255.800781 0 311.171875 55.371094 311.171875 123.671875 C 311.171875 174.570312 265.699219 239.554688 241.078125 282.199219 L 187.5 375 L 133.921875 282.199219 C 109.296875 239.550781 63.828125 174.574219 63.828125 123.671875 C 63.828125 55.371094 119.199219 0 187.5 0 Z M 187.5 27.488281 C 238.886719 27.488281 280.546875 69.148438 280.546875 120.535156 C 280.546875 171.925781 238.886719 213.582031 187.5 213.582031 C 136.113281 213.582031 94.453125 171.925781 94.453125 120.535156 C 94.453125 69.148438 136.113281 27.488281 187.5 27.488281 Z M 187.5 27.488281 " fill-opacity="1" fill-rule="evenodd"/></g><path fill="#397fbf" d="M 223.3125 152.898438 L 223.3125 116.332031 L 187.5 133.054688 L 151.6875 116.328125 L 151.6875 152.898438 Z M 223.3125 152.898438 " fill-opacity="1" fill-rule="evenodd"/></svg>