<svg xmlns="http://www.w3.org/2000/svg" xmlns:xlink="http://www.w3.org/1999/xlink" width="500" zoomAndPan="magnify" viewBox="0 0 375 374.999991" height="500" preserveAspectRatio="xMidYMid meet" version="1.0"><defs><clipPath id="95eac1d4d3"><path d="M 51.957031 0 L 319.707031 0 L 319.707031 375 L 51.957031 375 Z M 51.957031 0 " clip-rule="nonzero"/></clipPath></defs><g clip-path="url(#95eac1d4d3)"><path fill="#397fbf" d="M 206.398438 1.351562 C 199.566406 0.53125 192.710938 0.125 185.832031 0.140625 L 185.832031 0.207031 C 178.953125 0.191406 172.101562 0.597656 165.269531 1.417969 C 97.136719 9.769531 51.957031 73.859375 51.957031 138.457031 C 51.957031 180.191406 72.882812 218.707031 94.257812 254.359375 C 116.179688 290.273438 140.289062 324.648438 166.589844 357.496094 C 171.480469 363.699219 178.140625 374.378906 185.832031 374.859375 L 185.832031 374.792969 C 193.523438 374.3125 200.183594 363.632812 205.078125 357.429688 C 231.375 324.582031 255.488281 290.203125 277.410156 254.292969 C 298.785156 218.640625 319.707031 180.140625 319.707031 138.390625 C 319.707031 73.792969 274.53125 9.703125 206.398438 1.351562 Z M 185.832031 247.722656 C 183.972656 247.722656 182.109375 247.675781 180.25 247.585938 C 178.390625 247.496094 176.535156 247.355469 174.679688 247.175781 C 172.828125 246.992188 170.980469 246.765625 169.136719 246.492188 C 167.292969 246.21875 165.460938 245.898438 163.632812 245.535156 C 161.808594 245.171875 159.992188 244.765625 158.183594 244.3125 C 156.378906 243.859375 154.582031 243.363281 152.800781 242.824219 C 151.019531 242.285156 149.25 241.699219 147.496094 241.074219 C 145.746094 240.445312 144.007812 239.777344 142.285156 239.0625 C 140.566406 238.351562 138.863281 237.597656 137.179688 236.800781 C 135.496094 236.003906 133.835938 235.167969 132.191406 234.289062 C 130.550781 233.414062 128.929688 232.496094 127.332031 231.539062 C 125.734375 230.582031 124.160156 229.585938 122.613281 228.550781 C 121.066406 227.515625 119.542969 226.445312 118.046875 225.335938 C 116.550781 224.226562 115.082031 223.082031 113.644531 221.902344 C 112.203125 220.71875 110.792969 219.503906 109.414062 218.253906 C 108.035156 217.003906 106.6875 215.722656 105.371094 214.40625 C 104.050781 213.089844 102.769531 211.742188 101.519531 210.359375 C 100.265625 208.980469 99.050781 207.574219 97.871094 206.132812 C 96.6875 204.695312 95.542969 203.226562 94.433594 201.730469 C 93.324219 200.238281 92.253906 198.714844 91.21875 197.167969 C 90.183594 195.617188 89.1875 194.046875 88.230469 192.449219 C 87.273438 190.851562 86.355469 189.234375 85.476562 187.59375 C 84.597656 185.949219 83.761719 184.289062 82.964844 182.605469 C 82.167969 180.921875 81.414062 179.21875 80.703125 177.5 C 79.988281 175.78125 79.320312 174.042969 78.691406 172.292969 C 78.0625 170.539062 77.480469 168.769531 76.941406 166.988281 C 76.398438 165.207031 75.902344 163.414062 75.449219 161.609375 C 74.996094 159.804688 74.589844 157.988281 74.226562 156.160156 C 73.863281 154.335938 73.542969 152.5 73.273438 150.660156 C 73 148.820312 72.769531 146.972656 72.585938 145.117188 C 72.40625 143.265625 72.269531 141.410156 72.175781 139.550781 C 72.085938 137.691406 72.039062 135.832031 72.039062 133.96875 C 72.039062 132.105469 72.085938 130.246094 72.175781 128.386719 C 72.269531 126.527344 72.40625 124.671875 72.585938 122.820312 C 72.769531 120.964844 73 119.117188 73.273438 117.277344 C 73.542969 115.4375 73.863281 113.601562 74.226562 111.777344 C 74.589844 109.949219 74.996094 108.132812 75.449219 106.328125 C 75.902344 104.523438 76.398438 102.730469 76.941406 100.949219 C 77.480469 99.167969 78.0625 97.398438 78.691406 95.644531 C 79.320312 93.894531 79.988281 92.15625 80.703125 90.4375 C 81.414062 88.71875 82.167969 87.015625 82.964844 85.332031 C 83.761719 83.648438 84.597656 81.988281 85.476562 80.34375 C 86.355469 78.703125 87.273438 77.085938 88.230469 75.488281 C 89.1875 73.890625 90.183594 72.320312 91.21875 70.769531 C 92.253906 69.222656 93.324219 67.699219 94.433594 66.207031 C 95.542969 64.710938 96.6875 63.242188 97.871094 61.804688 C 99.050781 60.363281 100.265625 58.957031 101.519531 57.578125 C 102.769531 56.195312 104.050781 54.847656 105.371094 53.53125 C 106.6875 52.214844 108.035156 50.933594 109.414062 49.683594 C 110.792969 48.433594 112.203125 47.21875 113.644531 46.035156 C 115.082031 44.855469 116.550781 43.710938 118.046875 42.601562 C 119.542969 41.492188 121.066406 40.421875 122.613281 39.386719 C 124.160156 38.351562 125.734375 37.355469 127.332031 36.398438 C 128.929688 35.441406 130.550781 34.523438 132.191406 33.648438 C 133.835938 32.769531 135.496094 31.933594 137.179688 31.136719 C 138.863281 30.339844 140.566406 29.585938 142.285156 28.875 C 144.007812 28.160156 145.746094 27.492188 147.496094 26.863281 C 149.25 26.238281 151.019531 25.652344 152.800781 25.113281 C 154.582031 24.574219 156.378906 24.078125 158.183594 23.625 C 159.992188 23.171875 161.808594 22.765625 163.632812 22.402344 C 165.460938 22.039062 167.292969 21.71875 169.136719 21.445312 C 170.980469 21.171875 172.828125 20.945312 174.679688 20.761719 C 176.535156 20.582031 178.390625 20.441406 180.25 20.351562 C 182.109375 20.261719 183.972656 20.214844 185.832031 20.214844 C 187.695312 20.214844 189.558594 20.261719 191.417969 20.351562 C 193.277344 20.441406 195.132812 20.582031 196.988281 20.761719 C 198.839844 20.945312 200.6875 21.171875 202.53125 21.445312 C 204.371094 21.71875 206.207031 22.039062 208.035156 22.402344 C 209.859375 22.765625 211.675781 23.171875 213.484375 23.625 C 215.289062 24.078125 217.085938 24.574219 218.867188 25.113281 C 220.648438 25.652344 222.417969 26.238281 224.167969 26.863281 C 225.921875 27.492188 227.660156 28.160156 229.378906 28.875 C 231.101562 29.585938 232.804688 30.339844 234.488281 31.136719 C 236.171875 31.933594 237.832031 32.769531 239.476562 33.648438 C 241.117188 34.523438 242.738281 35.441406 244.335938 36.398438 C 245.933594 37.355469 247.503906 38.351562 249.054688 39.386719 C 250.601562 40.421875 252.125 41.492188 253.621094 42.601562 C 255.117188 43.710938 256.585938 44.855469 258.023438 46.035156 C 259.464844 47.21875 260.871094 48.433594 262.253906 49.683594 C 263.632812 50.933594 264.980469 52.214844 266.296875 53.53125 C 267.613281 54.847656 268.898438 56.195312 270.148438 57.578125 C 271.398438 58.957031 272.617188 60.363281 273.796875 61.804688 C 274.980469 63.242188 276.125 64.710938 277.234375 66.207031 C 278.34375 67.699219 279.414062 69.222656 280.449219 70.769531 C 281.484375 72.320312 282.480469 73.890625 283.4375 75.488281 C 284.394531 77.085938 285.3125 78.703125 286.191406 80.34375 C 287.070312 81.988281 287.90625 83.648438 288.703125 85.332031 C 289.5 87.015625 290.253906 88.71875 290.964844 90.4375 C 291.679688 92.15625 292.347656 93.894531 292.976562 95.644531 C 293.601562 97.398438 294.1875 99.167969 294.726562 100.949219 C 295.269531 102.730469 295.765625 104.523438 296.21875 106.328125 C 296.667969 108.132812 297.078125 109.949219 297.441406 111.777344 C 297.804688 113.601562 298.121094 115.4375 298.394531 117.277344 C 298.667969 119.117188 298.898438 120.964844 299.078125 122.820312 C 299.261719 124.671875 299.398438 126.527344 299.492188 128.386719 C 299.582031 130.246094 299.628906 132.105469 299.628906 133.96875 C 299.628906 135.832031 299.582031 137.691406 299.492188 139.550781 C 299.398438 141.410156 299.261719 143.265625 299.078125 145.117188 C 298.898438 146.972656 298.667969 148.820312 298.394531 150.660156 C 298.121094 152.5 297.804688 154.335938 297.441406 156.160156 C 297.078125 157.988281 296.667969 159.804688 296.21875 161.609375 C 295.765625 163.414062 295.269531 165.207031 294.726562 166.988281 C 294.1875 168.769531 293.601562 170.539062 292.976562 172.292969 C 292.347656 174.042969 291.679688 175.78125 290.964844 177.5 C 290.253906 179.21875 289.5 180.921875 288.703125 182.605469 C 287.90625 184.289062 287.070312 185.949219 286.191406 187.59375 C 285.3125 189.234375 284.394531 190.851562 283.4375 192.449219 C 282.480469 194.046875 281.484375 195.617188 280.449219 197.167969 C 279.414062 198.714844 278.34375 200.238281 277.234375 201.730469 C 276.125 203.226562 274.980469 204.695312 273.796875 206.132812 C 272.617188 207.574219 271.398438 208.980469 270.148438 210.359375 C 268.898438 211.742188 267.613281 213.089844 266.296875 214.40625 C 264.980469 215.722656 263.632812 217.003906 262.253906 218.253906 C 260.871094 219.503906 259.464844 220.71875 258.023438 221.902344 C 256.585938 223.082031 255.117188 224.226562 253.621094 225.335938 C 252.125 226.445312 250.601562 227.515625 249.054688 228.550781 C 247.503906 229.585938 245.933594 230.582031 244.335938 231.539062 C 242.738281 232.496094 241.117188 233.414062 239.476562 234.289062 C 237.832031 235.167969 236.171875 236.003906 234.488281 236.800781 C 232.804688 237.597656 231.101562 238.351562 229.378906 239.0625 C 227.660156 239.777344 225.921875 240.445312 224.167969 241.074219 C 222.417969 241.699219 220.648438 242.285156 218.867188 242.824219 C 217.085938 243.363281 215.289062 243.859375 213.484375 244.3125 C 211.675781 244.765625 209.859375 245.171875 208.035156 245.535156 C 206.207031 245.898438 204.371094 246.21875 202.53125 246.492188 C 200.6875 246.765625 198.839844 246.992188 196.988281 247.175781 C 195.132812 247.355469 193.277344 247.496094 191.417969 247.585938 C 189.558594 247.675781 187.695312 247.722656 185.832031 247.722656 Z M 185.832031 247.722656 " fill-opacity="1" fill-rule="nonzero"/></g><path fill="#397fbf" d="M 179.976562 53.671875 C 176.757812 53.671875 174.121094 57.6875 174.121094 62.589844 L 174.121094 93.820312 C 174.121094 96.316406 172.835938 98.285156 171.195312 98.285156 C 169.554688 98.285156 168.261719 96.316406 168.261719 93.820312 L 168.261719 62.589844 C 168.261719 57.6875 165.625 53.671875 162.40625 53.671875 C 159.1875 53.671875 156.546875 57.6875 156.546875 62.589844 L 156.546875 93.820312 C 156.546875 96.316406 155.261719 98.285156 153.617188 98.285156 C 151.96875 98.285156 150.691406 96.316406 150.691406 93.820312 L 150.691406 62.589844 C 150.691406 57.6875 148.054688 53.671875 144.835938 53.671875 C 141.613281 53.671875 138.976562 57.6875 138.976562 62.589844 L 138.976562 81.957031 C 138.871094 85.578125 139.074219 89.183594 139.59375 92.773438 C 140.113281 96.359375 140.9375 99.875 142.066406 103.320312 C 143.195312 106.765625 144.609375 110.085938 146.316406 113.285156 C 148.019531 116.484375 149.988281 119.515625 152.21875 122.371094 L 155.925781 126.574219 L 151.75 196.492188 C 151.179688 206.035156 156.113281 214.265625 162.40625 214.265625 C 168.699219 214.265625 173.632812 206.035156 173.0625 196.492188 L 168.886719 126.609375 L 172.601562 122.40625 C 174.832031 119.546875 176.800781 116.515625 178.503906 113.3125 C 180.207031 110.109375 181.625 106.785156 182.753906 103.335938 C 183.882812 99.890625 184.703125 96.371094 185.222656 92.78125 C 185.738281 89.191406 185.941406 85.582031 185.832031 81.957031 L 185.832031 62.589844 C 185.832031 57.6875 183.195312 53.671875 179.976562 53.671875 Z M 179.976562 53.671875 " fill-opacity="1" fill-rule="nonzero"/><path fill="#397fbf" d="M 199.890625 143.605469 L 216.003906 143.605469 L 211.363281 202.550781 C 211.269531 203.285156 211.253906 204.019531 211.316406 204.757812 C 211.378906 205.5 211.511719 206.222656 211.722656 206.933594 C 211.933594 207.644531 212.21875 208.324219 212.570312 208.976562 C 212.921875 209.628906 213.339844 210.238281 213.816406 210.800781 C 214.296875 211.367188 214.828125 211.878906 215.414062 212.332031 C 216 212.789062 216.625 213.175781 217.289062 213.503906 C 217.957031 213.828125 218.648438 214.082031 219.367188 214.261719 C 220.085938 214.445312 220.816406 214.550781 221.558594 214.578125 C 222.296875 214.609375 223.035156 214.5625 223.765625 214.441406 C 224.496094 214.316406 225.207031 214.121094 225.894531 213.851562 C 226.585938 213.582031 227.242188 213.242188 227.863281 212.835938 C 228.480469 212.429688 229.054688 211.964844 229.578125 211.441406 C 230.101562 210.914062 230.5625 210.339844 230.96875 209.71875 C 231.371094 209.097656 231.707031 208.445312 231.976562 207.753906 C 232.242188 207.0625 232.4375 206.351562 232.558594 205.621094 C 232.679688 204.886719 232.722656 204.152344 232.691406 203.414062 L 232.691406 53.671875 C 191.691406 53.671875 199.890625 143.605469 199.890625 143.605469 Z M 199.890625 143.605469 " fill-opacity="1" fill-rule="nonzero"/></svg>