<svg xmlns="http://www.w3.org/2000/svg" xmlns:xlink="http://www.w3.org/1999/xlink" width="500" zoomAndPan="magnify" viewBox="0 0 375 374.999991" height="500" preserveAspectRatio="xMidYMid meet" version="1.0"><defs><clipPath id="5d83f755ff"><path d="M 70.546875 4 L 304.546875 4 L 304.546875 375 L 70.546875 375 Z M 70.546875 4 " clip-rule="nonzero"/></clipPath><clipPath id="20284e5783"><path d="M 130.199219 85.527344 L 244.949219 85.527344 L 244.949219 156.027344 L 130.199219 156.027344 Z M 130.199219 85.527344 " clip-rule="nonzero"/></clipPath></defs><g clip-path="url(#5d83f755ff)"><path fill="#397fbf" d="M 187.546875 188.1875 C 150.371094 188.1875 120.242188 158.078125 120.242188 120.921875 C 120.242188 83.75 150.371094 53.640625 187.546875 53.640625 C 224.722656 53.640625 254.851562 83.75 254.851562 120.921875 C 254.851562 158.078125 224.722656 188.1875 187.546875 188.1875 Z M 187.546875 4.011719 C 122.949219 4.011719 70.59375 56.351562 70.59375 120.921875 C 70.59375 185.476562 187.546875 377.878906 187.546875 377.878906 C 187.546875 377.878906 304.5 185.476562 304.5 120.921875 C 304.5 56.351562 252.144531 4.011719 187.546875 4.011719 " fill-opacity="1" fill-rule="nonzero"/></g><g clip-path="url(#20284e5783)"><path fill="#397fbf" d="M 187.910156 148.417969 L 156.25 135.964844 L 161.867188 118.117188 L 188.46875 126.992188 L 215.066406 118.117188 L 220.683594 135.964844 L 188.46875 148.605469 Z M 159.917969 134.195312 L 188.46875 145.398438 L 216.972656 134.195312 L 213.117188 121.925781 L 188.46875 130.152344 L 163.816406 121.925781 Z M 149.195312 121.554688 C 148.914062 121.554688 148.636719 121.648438 148.40625 121.882812 C 148.21875 122.066406 148.082031 122.34375 148.082031 122.625 C 148.082031 122.949219 148.21875 123.226562 148.40625 123.414062 C 148.636719 123.648438 148.914062 123.738281 149.195312 123.738281 C 149.519531 123.738281 149.796875 123.648438 149.984375 123.414062 C 150.167969 123.226562 150.308594 122.949219 150.308594 122.625 C 150.308594 122.34375 150.167969 122.066406 149.984375 121.882812 C 149.796875 121.648438 149.519531 121.554688 149.195312 121.554688 Z M 148.21875 153.019531 L 150.214844 153.019531 L 149.332031 139.214844 Z M 149.195312 156.039062 L 144.96875 156.039062 L 147.382812 126.34375 C 146.964844 126.109375 146.59375 125.878906 146.269531 125.550781 C 145.527344 124.808594 145.109375 123.785156 145.109375 122.625 C 145.109375 121.507812 145.527344 120.484375 146.269531 119.742188 C 146.734375 119.324219 147.242188 119 147.800781 118.765625 L 147.707031 111.144531 L 130.207031 105.148438 C 149.332031 98.640625 168.460938 92.089844 187.585938 85.535156 C 206.710938 92.089844 225.839844 98.640625 244.964844 105.148438 L 187.585938 124.761719 L 187.121094 124.621094 L 150.726562 112.167969 L 150.820312 118.859375 C 151.285156 119.046875 151.746094 119.371094 152.117188 119.742188 C 152.859375 120.484375 153.324219 121.507812 153.324219 122.625 C 153.324219 123.785156 152.859375 124.808594 152.117188 125.550781 C 151.933594 125.738281 151.746094 125.878906 151.515625 126.015625 L 153.417969 156.039062 Z M 139.492188 105.148438 L 150.402344 108.914062 L 181.644531 98.410156 C 182.433594 98.132812 183.3125 98.546875 183.546875 99.339844 C 183.824219 100.128906 183.40625 100.964844 182.617188 101.246094 L 155.089844 110.492188 L 187.585938 121.601562 L 235.679688 105.148438 L 187.585938 88.695312 L 139.492188 105.148438 " fill-opacity="1" fill-rule="nonzero"/></g></svg>