<svg xmlns="http://www.w3.org/2000/svg" xmlns:xlink="http://www.w3.org/1999/xlink" width="500" zoomAndPan="magnify" viewBox="0 0 375 374.999991" height="500" preserveAspectRatio="xMidYMid meet" version="1.0"><defs><clipPath id="f8bf675f71"><path d="M 33.492188 33.492188 L 341.742188 33.492188 L 341.742188 341.742188 L 33.492188 341.742188 Z M 33.492188 33.492188 " clip-rule="nonzero"/></clipPath><clipPath id="0d15d4cce8"><path d="M 80 60.683594 L 295 60.683594 L 295 202 L 80 202 Z M 80 60.683594 " clip-rule="nonzero"/></clipPath><clipPath id="fcb9e4c353"><path d="M 118 60.683594 L 259 60.683594 L 259 114 L 118 114 Z M 118 60.683594 " clip-rule="nonzero"/></clipPath><clipPath id="96051c1ec0"><path d="M 131 194 L 245 194 L 245 314.183594 L 131 314.183594 Z M 131 194 " clip-rule="nonzero"/></clipPath></defs><path fill="#00427f" d="M 353.527344 250.910156 C 348.609375 263.617188 271.445312 344.960938 259.03125 350.472656 C 246.617188 355.984375 135.476562 357.707031 122.785156 352.722656 C 110.09375 347.742188 29.988281 271.3125 24.515625 258.839844 C 19.042969 246.367188 17.917969 135.222656 22.84375 122.554688 C 27.773438 109.886719 103.53125 29.546875 116.011719 24.148438 C 128.496094 18.746094 239.566406 16.964844 252.257812 21.894531 C 264.949219 26.828125 344.609375 104.011719 350.117188 116.441406 C 355.628906 128.871094 358.441406 238.199219 353.527344 250.910156 Z M 353.527344 250.910156 " fill-opacity="1" fill-rule="nonzero"/><g clip-path="url(#f8bf675f71)"><path fill="#ffffff" d="M 338.355469 250.0625 L 250.058594 338.355469 L 125.179688 338.355469 L 36.878906 250.0625 L 36.878906 125.183594 L 125.179688 36.882812 L 250.058594 36.882812 L 338.355469 125.183594 Z M 251.460938 33.492188 L 123.777344 33.492188 L 33.492188 123.777344 L 33.492188 251.460938 L 123.777344 341.742188 L 251.460938 341.742188 L 341.742188 251.460938 L 341.742188 123.777344 L 251.460938 33.492188 " fill-opacity="1" fill-rule="nonzero"/></g><g clip-path="url(#0d15d4cce8)"><path fill="#55acee" d="M 258.214844 60.703125 L 117.121094 60.703125 C 96.25 60.703125 74.792969 95.90625 81.847656 109.988281 C 93.21875 132.691406 166.503906 201.515625 166.503906 201.515625 L 208.832031 201.515625 C 208.832031 201.515625 279.378906 131.109375 293.488281 109.988281 C 300.542969 95.90625 277.027344 60.703125 258.214844 60.703125 Z M 229.996094 117.027344 L 187.667969 159.269531 L 145.339844 117.027344 C 141.585938 113.28125 139.390625 110.558594 139.03125 108.535156 C 138.035156 102.96875 151.417969 102.945312 187.667969 102.945312 C 236.457031 102.945312 240.40625 105.585938 233.746094 113.128906 C 232.710938 114.308594 231.425781 115.597656 229.996094 117.027344 Z M 229.996094 117.027344 " fill-opacity="1" fill-rule="nonzero"/></g><g clip-path="url(#fcb9e4c353)"><path fill="#3b88c3" d="M 139.03125 108.535156 C 138.035156 102.96875 151.417969 102.945312 187.667969 102.945312 C 236.457031 102.945312 240.40625 105.585938 233.746094 113.128906 C 271.378906 73.976562 259.589844 60.703125 244.105469 60.703125 L 131.230469 60.703125 C 105.980469 60.703125 124.101562 89.550781 139.03125 108.535156 Z M 139.03125 108.535156 " fill-opacity="1" fill-rule="nonzero"/></g><g clip-path="url(#96051c1ec0)"><path fill="#3b88c3" d="M 215.195312 208.695312 C 215.617188 207.546875 215.886719 206.324219 215.886719 205.035156 C 215.886719 199.203125 211.144531 194.472656 205.304688 194.472656 L 170.03125 194.472656 C 164.179688 194.472656 159.449219 199.203125 159.449219 205.035156 C 159.449219 206.324219 159.714844 207.546875 160.140625 208.695312 C 142.898438 218.332031 131.230469 236.714844 131.230469 257.835938 C 131.230469 288.941406 156.492188 314.160156 187.667969 314.160156 C 218.832031 314.160156 244.105469 288.941406 244.105469 257.835938 C 244.105469 236.714844 232.433594 218.332031 215.195312 208.695312 Z M 215.195312 208.695312 " fill-opacity="1" fill-rule="nonzero"/></g><path fill="#e2aa44" d="M 229.996094 257.835938 C 229.996094 259.222656 229.925781 260.601562 229.789062 261.976562 C 229.65625 263.355469 229.453125 264.722656 229.179688 266.078125 C 228.910156 267.4375 228.574219 268.777344 228.171875 270.101562 C 227.769531 271.425781 227.304688 272.726562 226.773438 274.003906 C 226.242188 275.28125 225.648438 276.53125 224.996094 277.75 C 224.34375 278.972656 223.632812 280.15625 222.859375 281.304688 C 222.089844 282.457031 221.265625 283.566406 220.386719 284.636719 C 219.507812 285.707031 218.578125 286.730469 217.597656 287.707031 C 216.617188 288.6875 215.589844 289.613281 214.519531 290.492188 C 213.449219 291.371094 212.335938 292.191406 211.183594 292.960938 C 210.03125 293.730469 208.84375 294.441406 207.621094 295.09375 C 206.398438 295.746094 205.144531 296.335938 203.863281 296.863281 C 202.582031 297.394531 201.28125 297.859375 199.953125 298.261719 C 198.625 298.664062 197.285156 299 195.925781 299.269531 C 194.5625 299.539062 193.195312 299.742188 191.816406 299.878906 C 190.433594 300.011719 189.050781 300.082031 187.667969 300.082031 C 186.28125 300.082031 184.898438 300.011719 183.515625 299.878906 C 182.136719 299.742188 180.769531 299.539062 179.410156 299.269531 C 178.046875 299 176.707031 298.664062 175.378906 298.261719 C 174.050781 297.859375 172.75 297.394531 171.46875 296.863281 C 170.1875 296.335938 168.933594 295.746094 167.714844 295.09375 C 166.492188 294.441406 165.300781 293.730469 164.148438 292.960938 C 162.996094 292.191406 161.886719 291.371094 160.8125 290.492188 C 159.742188 289.613281 158.714844 288.6875 157.734375 287.707031 C 156.753906 286.730469 155.824219 285.707031 154.945312 284.636719 C 154.066406 283.566406 153.242188 282.457031 152.472656 281.304688 C 151.703125 280.15625 150.988281 278.972656 150.335938 277.75 C 149.683594 276.53125 149.089844 275.28125 148.558594 274.003906 C 148.03125 272.726562 147.5625 271.425781 147.160156 270.101562 C 146.757812 268.777344 146.421875 267.4375 146.152344 266.078125 C 145.882812 264.722656 145.679688 263.355469 145.542969 261.976562 C 145.40625 260.601562 145.339844 259.222656 145.339844 257.835938 C 145.339844 256.453125 145.40625 255.074219 145.542969 253.695312 C 145.679688 252.320312 145.882812 250.953125 146.152344 249.597656 C 146.421875 248.238281 146.757812 246.898438 147.160156 245.574219 C 147.5625 244.25 148.03125 242.949219 148.558594 241.671875 C 149.089844 240.394531 149.683594 239.144531 150.335938 237.925781 C 150.988281 236.703125 151.703125 235.519531 152.472656 234.367188 C 153.242188 233.21875 154.066406 232.109375 154.945312 231.039062 C 155.824219 229.96875 156.753906 228.945312 157.734375 227.96875 C 158.714844 226.988281 159.742188 226.0625 160.8125 225.183594 C 161.886719 224.304688 162.996094 223.484375 164.148438 222.714844 C 165.300781 221.945312 166.492188 221.234375 167.714844 220.582031 C 168.933594 219.929688 170.1875 219.339844 171.46875 218.808594 C 172.75 218.28125 174.050781 217.816406 175.378906 217.414062 C 176.707031 217.011719 178.046875 216.675781 179.410156 216.40625 C 180.769531 216.136719 182.136719 215.933594 183.515625 215.796875 C 184.898438 215.664062 186.28125 215.59375 187.667969 215.59375 C 189.050781 215.59375 190.433594 215.664062 191.816406 215.796875 C 193.195312 215.933594 194.5625 216.136719 195.925781 216.40625 C 197.285156 216.675781 198.625 217.011719 199.953125 217.414062 C 201.28125 217.816406 202.582031 218.28125 203.863281 218.808594 C 205.144531 219.339844 206.398438 219.929688 207.621094 220.582031 C 208.84375 221.234375 210.03125 221.945312 211.183594 222.714844 C 212.335938 223.484375 213.449219 224.304688 214.519531 225.183594 C 215.589844 226.0625 216.617188 226.988281 217.597656 227.96875 C 218.578125 228.945312 219.507812 229.96875 220.386719 231.039062 C 221.265625 232.109375 222.089844 233.21875 222.859375 234.367188 C 223.632812 235.519531 224.34375 236.703125 224.996094 237.925781 C 225.648438 239.144531 226.242188 240.394531 226.773438 241.671875 C 227.304688 242.949219 227.769531 244.25 228.171875 245.574219 C 228.574219 246.898438 228.910156 248.238281 229.179688 249.597656 C 229.453125 250.953125 229.65625 252.320312 229.789062 253.695312 C 229.925781 255.074219 229.996094 256.453125 229.996094 257.835938 Z M 229.996094 257.835938 " fill-opacity="1" fill-rule="nonzero"/></svg>