<svg xmlns="http://www.w3.org/2000/svg" xmlns:xlink="http://www.w3.org/1999/xlink" width="500" zoomAndPan="magnify" viewBox="0 0 375 374.999991" height="500" preserveAspectRatio="xMidYMid meet" version="1.0"><path fill="#ff914d" d="M 187.488281 -0.00390625 C 83.941406 -0.00390625 0 83.941406 0 187.484375 C 0 291.035156 83.941406 374.976562 187.488281 374.976562 C 291.035156 374.976562 374.980469 291.035156 374.980469 187.484375 C 374.980469 83.941406 291.035156 -0.00390625 187.488281 -0.00390625 " fill-opacity="1" fill-rule="nonzero"/><path fill="#397fbf" d="M 183.230469 249.480469 C 173.726562 274.070312 164.214844 298.660156 154.710938 323.246094 C 154.679688 323.332031 154.648438 323.414062 154.613281 323.496094 C 156.21875 323.074219 157.820312 322.648438 159.421875 322.230469 C 149.601562 313.859375 139.777344 305.492188 129.953125 297.121094 C 128.410156 295.804688 125.746094 296.207031 123.84375 296.167969 C 119.714844 296.089844 115.585938 296.003906 111.457031 295.921875 C 104.492188 295.785156 97.527344 295.648438 90.5625 295.511719 C 90.527344 295.511719 90.492188 295.507812 90.460938 295.507812 C 91.382812 296.722656 92.308594 297.9375 93.234375 299.148438 C 102.738281 274.558594 112.25 249.972656 121.753906 225.382812 C 121.789062 225.296875 121.816406 225.214844 121.851562 225.132812 C 123.191406 221.667969 117.625 220.179688 116.300781 223.601562 C 106.792969 248.191406 97.285156 272.78125 87.78125 297.371094 C 87.75 297.453125 87.714844 297.539062 87.683594 297.621094 C 86.988281 299.421875 88.738281 301.230469 90.460938 301.261719 C 102.933594 301.511719 115.410156 301.757812 127.886719 302.003906 C 127.207031 301.722656 126.527344 301.441406 125.847656 301.164062 C 135.683594 309.539062 145.519531 317.917969 155.355469 326.296875 C 157.097656 327.78125 159.355469 327.117188 160.164062 325.027344 C 169.671875 300.4375 179.179688 275.851562 188.683594 251.257812 C 188.714844 251.175781 188.746094 251.089844 188.78125 251.011719 C 190.121094 247.542969 184.554688 246.058594 183.230469 249.480469 " fill-opacity="1" fill-rule="nonzero"/><path fill="#397fbf" d="M 183.195312 251.011719 C 192.703125 275.601562 202.210938 300.1875 211.71875 324.78125 C 211.75 324.863281 211.78125 324.945312 211.8125 325.027344 C 212.621094 327.117188 214.878906 327.78125 216.621094 326.296875 C 226.457031 317.917969 236.292969 309.539062 246.125 301.164062 C 245.449219 301.441406 244.769531 301.722656 244.089844 302.003906 C 256.566406 301.757812 269.042969 301.511719 281.515625 301.261719 C 283.238281 301.226562 284.992188 299.421875 284.292969 297.621094 C 274.785156 273.03125 265.28125 248.441406 255.773438 223.851562 C 255.738281 223.769531 255.710938 223.6875 255.675781 223.601562 C 254.351562 220.179688 248.785156 221.667969 250.128906 225.132812 C 259.636719 249.722656 269.140625 274.3125 278.644531 298.902344 C 278.679688 298.984375 278.710938 299.066406 278.746094 299.148438 C 279.667969 297.9375 280.589844 296.722656 281.515625 295.507812 C 275.089844 295.636719 268.664062 295.761719 262.230469 295.886719 C 257.925781 295.976562 253.617188 296.0625 249.304688 296.148438 C 247.5 296.179688 244.308594 295.664062 242.640625 296.640625 C 240.929688 297.640625 239.417969 299.339844 237.925781 300.613281 C 234.671875 303.378906 231.425781 306.148438 228.171875 308.921875 C 222.988281 313.332031 217.808594 317.75 212.628906 322.164062 C 212.605469 322.1875 212.574219 322.203125 212.550781 322.230469 C 214.15625 322.648438 215.761719 323.074219 217.363281 323.496094 C 207.855469 298.90625 198.347656 274.316406 188.84375 249.726562 C 188.8125 249.644531 188.777344 249.5625 188.746094 249.480469 C 187.421875 246.058594 181.859375 247.542969 183.195312 251.011719 " fill-opacity="1" fill-rule="nonzero"/><path fill="#397fbf" d="M 283.15625 150.257812 C 283.050781 176.203125 272.4375 200.953125 253.75 218.941406 C 235.015625 236.972656 209.292969 246.203125 183.414062 245.046875 C 157.691406 243.902344 133.4375 231.691406 116.523438 212.429688 C 99.3125 192.824219 91.390625 166.503906 93.804688 140.652344 C 96.1875 115.128906 109.632812 91.578125 129.539062 75.652344 C 149.851562 59.402344 176.929688 52.535156 202.566406 56.398438 C 224.824219 59.753906 245.160156 71.21875 259.96875 88.082031 C 274.980469 105.179688 283.066406 127.582031 283.15625 150.257812 C 283.171875 153.96875 288.929688 153.96875 288.914062 150.257812 C 288.808594 124.363281 278.8125 99.472656 261 80.683594 C 243.320312 62.035156 218.664062 51.054688 193.078125 49.707031 C 167.167969 48.34375 141.5625 57.558594 122.003906 74.464844 C 102.625 91.21875 90.625 115.265625 88.046875 140.652344 C 85.414062 166.582031 93.519531 192.648438 109.574219 213.03125 C 125.296875 233.003906 148.839844 246.3125 173.953125 249.890625 C 199.769531 253.570312 226.359375 247 247.453125 231.660156 C 268.003906 216.71875 282.332031 194.144531 287.121094 169.195312 C 288.324219 162.960938 288.886719 156.601562 288.914062 150.257812 C 288.929688 146.546875 283.171875 146.546875 283.15625 150.257812 " fill-opacity="1" fill-rule="nonzero"/><path fill="#397fbf" d="M 106 150.257812 C 106.121094 124.75 117.949219 100.890625 137.96875 85.132812 C 160.078125 67.726562 190.421875 63.621094 216.714844 73.058594 C 220.214844 74.3125 221.707031 68.75 218.242188 67.507812 C 191.316406 57.84375 160.875 61.886719 137.496094 78.363281 C 116.480469 93.183594 103.117188 116.730469 100.617188 142.246094 C 100.359375 144.90625 100.257812 147.582031 100.246094 150.257812 C 100.226562 153.96875 105.980469 153.96875 106 150.257812 " fill-opacity="1" fill-rule="nonzero"/><path fill="#397fbf" d="M 242.808594 88.703125 C 264.789062 108.484375 274.804688 138.609375 268.667969 167.601562 C 263.359375 192.660156 246.070312 213.828125 223.054688 224.808594 C 199.84375 235.878906 171.882812 234.78125 149.308594 222.71875 C 126.894531 210.75 111.355469 188.578125 107.066406 163.632812 C 106.4375 159.980469 100.894531 161.53125 101.515625 165.160156 C 105.9375 190.863281 121.867188 213.460938 144.378906 226.558594 C 167.242188 239.863281 195.8125 241.804688 220.382812 232.1875 C 244.089844 222.90625 262.648438 203.414062 271.257812 179.523438 C 280.945312 152.640625 276.210938 121.78125 259.554688 98.699219 C 255.851562 93.5625 251.582031 88.867188 246.878906 84.632812 C 244.128906 82.160156 240.046875 86.21875 242.808594 88.703125 " fill-opacity="1" fill-rule="nonzero"/><path fill="#397fbf" d="M 226.316406 77.328125 C 229.691406 79.117188 232.9375 81.113281 236.0625 83.3125 C 239.101562 85.457031 241.972656 80.464844 238.964844 78.34375 C 235.84375 76.144531 232.601562 74.148438 229.222656 72.359375 C 225.949219 70.621094 223.039062 75.589844 226.316406 77.328125 " fill-opacity="1" fill-rule="nonzero"/></svg>