<svg xmlns="http://www.w3.org/2000/svg" xmlns:xlink="http://www.w3.org/1999/xlink" width="500" zoomAndPan="magnify" viewBox="0 0 375 374.999991" height="500" preserveAspectRatio="xMidYMid meet" version="1.0"><defs><clipPath id="ab2933b982"><path d="M 33.492188 33.492188 L 341.742188 33.492188 L 341.742188 341.742188 L 33.492188 341.742188 Z M 33.492188 33.492188 " clip-rule="nonzero"/></clipPath><clipPath id="49b3fed15f"><path d="M 65.734375 68.65625 L 309.484375 68.65625 L 309.484375 306.40625 L 65.734375 306.40625 Z M 65.734375 68.65625 " clip-rule="nonzero"/></clipPath></defs><path fill="#00427f" d="M 353.527344 250.910156 C 348.609375 263.617188 271.445312 344.960938 259.03125 350.472656 C 246.617188 355.984375 135.476562 357.707031 122.785156 352.722656 C 110.09375 347.742188 29.988281 271.3125 24.515625 258.839844 C 19.042969 246.367188 17.917969 135.222656 22.84375 122.554688 C 27.773438 109.886719 103.53125 29.546875 116.011719 24.148438 C 128.496094 18.746094 239.566406 16.964844 252.257812 21.894531 C 264.949219 26.828125 344.609375 104.011719 350.117188 116.441406 C 355.628906 128.871094 358.441406 238.203125 353.527344 250.910156 Z M 353.527344 250.910156 " fill-opacity="1" fill-rule="nonzero"/><g clip-path="url(#ab2933b982)"><path fill="#ffffff" d="M 338.355469 250.0625 L 250.058594 338.355469 L 125.179688 338.355469 L 36.878906 250.0625 L 36.878906 125.183594 L 125.179688 36.882812 L 250.058594 36.882812 L 338.355469 125.183594 Z M 251.460938 33.492188 L 123.777344 33.492188 L 33.492188 123.777344 L 33.492188 251.460938 L 123.777344 341.742188 L 251.460938 341.742188 L 341.742188 251.460938 L 341.742188 123.777344 L 251.460938 33.492188 " fill-opacity="1" fill-rule="nonzero"/></g><g clip-path="url(#49b3fed15f)"><path fill="#c9ccb0" d="M 308.582031 157.3125 C 306.46875 151.191406 301.050781 146.707031 294.53125 145.730469 L 231.113281 136.246094 L 203.546875 78.664062 C 200.644531 72.617188 194.433594 68.746094 187.605469 68.746094 C 180.785156 68.746094 174.574219 72.617188 171.671875 78.664062 L 144.105469 136.246094 L 80.675781 145.730469 C 74.160156 146.707031 68.746094 151.191406 66.644531 157.3125 C 64.546875 163.449219 66.132812 170.207031 70.734375 174.824219 L 117.214844 221.507812 L 106.4375 286.273438 C 105.339844 292.796875 108.148438 299.339844 113.65625 303.15625 C 116.683594 305.246094 120.238281 306.3125 123.796875 306.3125 C 126.722656 306.3125 129.65625 305.59375 132.3125 304.160156 L 187.605469 274.207031 L 242.910156 304.160156 C 245.566406 305.59375 248.5 306.3125 251.417969 306.3125 C 254.976562 306.3125 258.53125 305.246094 261.566406 303.15625 C 267.074219 299.339844 269.867188 292.792969 268.78125 286.273438 L 257.996094 221.507812 L 304.488281 174.824219 C 309.085938 170.203125 310.660156 163.441406 308.582031 157.3125 Z M 245.410156 209.46875 C 241.511719 213.375 239.738281 218.886719 240.632812 224.292969 L 251.417969 289.054688 L 196.117188 259.117188 C 193.46875 257.679688 190.542969 256.964844 187.601562 256.964844 C 184.675781 256.964844 181.742188 257.6875 179.089844 259.117188 L 123.792969 289.054688 L 134.578125 224.292969 C 135.476562 218.886719 133.707031 213.375 129.804688 209.46875 L 83.328125 162.78125 L 146.75 153.277344 C 152.542969 152.414062 157.535156 148.765625 160.027344 143.5625 L 187.605469 85.996094 L 215.183594 143.574219 C 217.679688 148.777344 222.660156 152.414062 228.453125 153.289062 L 291.890625 162.792969 Z M 245.410156 209.46875 " fill-opacity="1" fill-rule="nonzero"/></g></svg>