<svg xmlns="http://www.w3.org/2000/svg" xmlns:xlink="http://www.w3.org/1999/xlink" width="500" zoomAndPan="magnify" viewBox="0 0 375 374.999991" height="500" preserveAspectRatio="xMidYMid meet" version="1.0"><defs><clipPath id="7b53d06b9f"><path d="M 33.492188 33.492188 L 341.742188 33.492188 L 341.742188 341.742188 L 33.492188 341.742188 Z M 33.492188 33.492188 " clip-rule="nonzero"/></clipPath><clipPath id="da738a68ca"><path d="M 80 65.183594 L 295 65.183594 L 295 207 L 80 207 Z M 80 65.183594 " clip-rule="nonzero"/></clipPath><clipPath id="5cdfd01cf4"><path d="M 118 65.183594 L 259 65.183594 L 259 118 L 118 118 Z M 118 65.183594 " clip-rule="nonzero"/></clipPath><clipPath id="8940274471"><path d="M 131 198 L 245 198 L 245 318.683594 L 131 318.683594 Z M 131 198 " clip-rule="nonzero"/></clipPath></defs><path fill="#00427f" d="M 353.527344 250.910156 C 348.609375 263.617188 271.445312 344.960938 259.03125 350.472656 C 246.617188 355.984375 135.476562 357.707031 122.785156 352.722656 C 110.09375 347.742188 29.988281 271.3125 24.515625 258.839844 C 19.042969 246.367188 17.917969 135.222656 22.84375 122.554688 C 27.773438 109.886719 103.53125 29.546875 116.011719 24.148438 C 128.496094 18.746094 239.566406 16.964844 252.257812 21.894531 C 264.949219 26.828125 344.609375 104.011719 350.117188 116.441406 C 355.628906 128.871094 358.441406 238.203125 353.527344 250.910156 Z M 353.527344 250.910156 " fill-opacity="1" fill-rule="nonzero"/><g clip-path="url(#7b53d06b9f)"><path fill="#ffffff" d="M 338.355469 250.0625 L 250.058594 338.355469 L 125.179688 338.355469 L 36.878906 250.0625 L 36.878906 125.183594 L 125.179688 36.882812 L 250.058594 36.882812 L 338.355469 125.183594 Z M 251.460938 33.492188 L 123.777344 33.492188 L 33.492188 123.777344 L 33.492188 251.460938 L 123.777344 341.742188 L 251.460938 341.742188 L 341.742188 251.460938 L 341.742188 123.777344 L 251.460938 33.492188 " fill-opacity="1" fill-rule="nonzero"/></g><g clip-path="url(#da738a68ca)"><path fill="#55acee" d="M 258.214844 65.203125 L 117.121094 65.203125 C 96.25 65.203125 74.792969 100.40625 81.847656 114.488281 C 93.21875 137.191406 166.503906 206.011719 166.503906 206.011719 L 208.832031 206.011719 C 208.832031 206.011719 279.378906 135.609375 293.488281 114.488281 C 300.542969 100.40625 277.027344 65.203125 258.214844 65.203125 Z M 229.996094 121.527344 L 187.667969 163.769531 L 145.339844 121.527344 C 141.585938 117.78125 139.390625 115.058594 139.03125 113.035156 C 138.035156 107.46875 151.417969 107.445312 187.667969 107.445312 C 236.457031 107.445312 240.40625 110.085938 233.746094 117.628906 C 232.710938 118.808594 231.425781 120.097656 229.996094 121.527344 Z M 229.996094 121.527344 " fill-opacity="1" fill-rule="nonzero"/></g><g clip-path="url(#5cdfd01cf4)"><path fill="#3b88c3" d="M 139.03125 113.035156 C 138.035156 107.46875 151.417969 107.445312 187.667969 107.445312 C 236.457031 107.445312 240.40625 110.085938 233.746094 117.628906 C 271.378906 78.476562 259.589844 65.203125 244.105469 65.203125 L 131.230469 65.203125 C 105.980469 65.203125 124.101562 94.046875 139.03125 113.035156 Z M 139.03125 113.035156 " fill-opacity="1" fill-rule="nonzero"/></g><g clip-path="url(#8940274471)"><path fill="#3b88c3" d="M 215.195312 213.195312 C 215.617188 212.046875 215.886719 210.824219 215.886719 209.535156 C 215.886719 203.703125 211.144531 198.972656 205.304688 198.972656 L 170.03125 198.972656 C 164.179688 198.972656 159.449219 203.703125 159.449219 209.535156 C 159.449219 210.824219 159.714844 212.046875 160.140625 213.195312 C 142.898438 222.832031 131.230469 241.214844 131.230469 262.335938 C 131.230469 293.441406 156.492188 318.660156 187.667969 318.660156 C 218.832031 318.660156 244.105469 293.441406 244.105469 262.335938 C 244.105469 241.214844 232.433594 222.832031 215.195312 213.195312 Z M 215.195312 213.195312 " fill-opacity="1" fill-rule="nonzero"/></g><path fill="#c9ccb0" d="M 229.996094 262.335938 C 229.996094 263.722656 229.925781 265.101562 229.789062 266.476562 C 229.65625 267.855469 229.453125 269.222656 229.179688 270.578125 C 228.910156 271.9375 228.574219 273.277344 228.171875 274.601562 C 227.769531 275.925781 227.304688 277.226562 226.773438 278.503906 C 226.242188 279.78125 225.648438 281.03125 224.996094 282.25 C 224.34375 283.472656 223.632812 284.65625 222.859375 285.804688 C 222.089844 286.957031 221.265625 288.066406 220.386719 289.136719 C 219.507812 290.207031 218.578125 291.230469 217.597656 292.207031 C 216.617188 293.1875 215.589844 294.113281 214.519531 294.992188 C 213.449219 295.871094 212.335938 296.691406 211.183594 297.460938 C 210.03125 298.230469 208.84375 298.941406 207.621094 299.59375 C 206.398438 300.246094 205.144531 300.835938 203.863281 301.363281 C 202.582031 301.894531 201.28125 302.359375 199.953125 302.761719 C 198.625 303.164062 197.285156 303.5 195.925781 303.769531 C 194.5625 304.039062 193.195312 304.242188 191.816406 304.378906 C 190.433594 304.511719 189.050781 304.582031 187.667969 304.582031 C 186.28125 304.582031 184.898438 304.511719 183.515625 304.378906 C 182.136719 304.242188 180.769531 304.039062 179.410156 303.769531 C 178.046875 303.5 176.707031 303.164062 175.378906 302.761719 C 174.050781 302.359375 172.75 301.894531 171.46875 301.363281 C 170.1875 300.835938 168.933594 300.246094 167.714844 299.59375 C 166.492188 298.941406 165.300781 298.230469 164.148438 297.460938 C 162.996094 296.691406 161.886719 295.871094 160.8125 294.992188 C 159.742188 294.113281 158.714844 293.1875 157.734375 292.207031 C 156.753906 291.230469 155.824219 290.207031 154.945312 289.136719 C 154.066406 288.066406 153.242188 286.957031 152.472656 285.804688 C 151.703125 284.65625 150.988281 283.472656 150.335938 282.25 C 149.683594 281.03125 149.089844 279.78125 148.558594 278.503906 C 148.03125 277.226562 147.5625 275.925781 147.160156 274.601562 C 146.757812 273.277344 146.421875 271.9375 146.152344 270.578125 C 145.882812 269.222656 145.679688 267.855469 145.542969 266.476562 C 145.40625 265.101562 145.339844 263.722656 145.339844 262.335938 C 145.339844 260.953125 145.40625 259.574219 145.542969 258.195312 C 145.679688 256.820312 145.882812 255.453125 146.152344 254.097656 C 146.421875 252.738281 146.757812 251.398438 147.160156 250.074219 C 147.5625 248.75 148.03125 247.449219 148.558594 246.171875 C 149.089844 244.894531 149.683594 243.644531 150.335938 242.425781 C 150.988281 241.203125 151.703125 240.019531 152.472656 238.867188 C 153.242188 237.71875 154.066406 236.609375 154.945312 235.539062 C 155.824219 234.46875 156.753906 233.445312 157.734375 232.46875 C 158.714844 231.488281 159.742188 230.5625 160.8125 229.683594 C 161.886719 228.804688 162.996094 227.984375 164.148438 227.214844 C 165.300781 226.445312 166.492188 225.734375 167.714844 225.082031 C 168.933594 224.429688 170.1875 223.839844 171.46875 223.308594 C 172.75 222.78125 174.050781 222.316406 175.378906 221.914062 C 176.707031 221.511719 178.046875 221.175781 179.410156 220.90625 C 180.769531 220.636719 182.136719 220.433594 183.515625 220.296875 C 184.898438 220.164062 186.28125 220.09375 187.667969 220.09375 C 189.050781 220.09375 190.433594 220.164062 191.816406 220.296875 C 193.195312 220.433594 194.5625 220.636719 195.925781 220.90625 C 197.285156 221.175781 198.625 221.511719 199.953125 221.914062 C 201.28125 222.316406 202.582031 222.78125 203.863281 223.308594 C 205.144531 223.839844 206.398438 224.429688 207.621094 225.082031 C 208.84375 225.734375 210.03125 226.445312 211.183594 227.214844 C 212.335938 227.984375 213.449219 228.804688 214.519531 229.683594 C 215.589844 230.5625 216.617188 231.488281 217.597656 232.46875 C 218.578125 233.445312 219.507812 234.46875 220.386719 235.539062 C 221.265625 236.609375 222.089844 237.71875 222.859375 238.867188 C 223.632812 240.019531 224.34375 241.203125 224.996094 242.425781 C 225.648438 243.644531 226.242188 244.894531 226.773438 246.171875 C 227.304688 247.449219 227.769531 248.75 228.171875 250.074219 C 228.574219 251.398438 228.910156 252.738281 229.179688 254.097656 C 229.453125 255.453125 229.65625 256.820312 229.789062 258.195312 C 229.925781 259.574219 229.996094 260.953125 229.996094 262.335938 Z M 229.996094 262.335938 " fill-opacity="1" fill-rule="nonzero"/></svg>